<svg xmlns="http://www.w3.org/2000/svg" width="100" height="100" viewBox="0 0 100 100">
  <defs>
    <linearGradient id="bg" x1="0" y1="0" x2="0" y2="1">
      <stop offset="0" stop-color="#e88a3a"/>
      <stop offset="1" stop-color="#cf6c1f"/>
    </linearGradient>
  </defs>
  <rect x="2" y="2" width="96" height="96" rx="22" fill="url(#bg)"/>
  <rect x="6.5" y="6.5" width="87" height="87" rx="18" fill="none" stroke="#b58a39" stroke-width="2.2" opacity="0.9"/>
  <g fill="#faf4e6">
    <path d="M30.56 59.48L39.89 38.87L40.13 40.94L32.35 58.27Q32.35 58.27 32.12 58.80Q31.89 59.33 31.64 60.05Q31.39 60.78 31.30 61.43L30.99 61.43L30.56 59.48M20.14 58.74L20.82 58.74L20.82 61L17.38 61L17.38 60.69Q17.41 60.69 17.64 60.69Q17.88 60.69 17.88 60.69Q18.71 60.69 19.36 60.18Q20.02 59.67 20.14 58.74M21.50 59.23L21.72 59.23Q21.72 59.26 21.72 59.30Q21.72 59.33 21.72 59.39Q21.72 59.88 22.08 60.30Q22.43 60.72 22.93 60.72L23.39 60.72L23.39 61L21.50 61L21.50 59.23M19.89 61L22.46 38.87L22.77 38.87L23.39 40.70L21.57 61L19.89 61M22.19 42.34L22.77 38.87L31.70 58.18L30.99 61.43L22.19 42.34M39.89 38.87L40.17 38.87L42.83 61L40.41 61L38.71 42.21L39.89 38.87M41.90 61L41.90 58.74L42.55 58.74Q42.71 59.67 43.36 60.18Q44.01 60.69 44.82 60.69Q44.82 60.69 45.06 60.69Q45.31 60.69 45.31 60.69L45.31 61L41.90 61M40.26 59.23L40.48 59.23L40.48 61L38.58 61L38.58 60.72L39.05 60.72Q39.58 60.72 39.92 60.30Q40.26 59.88 40.26 59.39Q40.26 59.33 40.26 59.30Q40.26 59.26 40.26 59.23"/>
    <path d="M54.63 41.05Q55.48 41.05 56.28 41.27Q57.08 41.50 57.75 41.89Q58.43 42.27 58.88 42.83L58.43 45.65L58.18 45.65Q58.18 44.45 57.73 43.59Q57.28 42.72 56.49 42.26Q55.70 41.80 54.63 41.80Q53.20 41.80 52.26 42.80Q51.33 43.80 51.33 45.32Q51.33 46.90 52.35 48.25Q53.38 49.60 55.30 51.32Q55.85 51.80 56.51 52.41Q57.18 53.02 58.04 53.77Q58.90 54.52 59.98 55.42Q60.78 56.07 61.61 56.80Q62.45 57.52 63.34 58.05Q64.23 58.57 65.18 58.65L65.18 58.90Q64.70 58.90 63.81 58.88Q62.93 58.85 61.85 58.52Q60.78 58.20 59.70 57.32Q58.75 56.55 57.96 55.89Q57.18 55.23 56.51 54.66Q55.85 54.10 55.28 53.59Q54.70 53.07 54.15 52.57Q52.70 51.22 51.69 50.14Q50.68 49.05 50.14 47.91Q49.60 46.77 49.60 45.32Q49.60 44.40 49.95 43.63Q50.30 42.85 50.96 42.27Q51.63 41.70 52.55 41.38Q53.48 41.05 54.63 41.05M61.53 50.67Q61.80 52.05 61.68 53.30Q61.55 54.55 61.06 55.61Q60.58 56.67 59.74 57.48Q58.90 58.27 57.75 58.71Q56.60 59.15 55.18 59.15Q53.73 59.15 52.51 58.90Q51.30 58.65 50.38 58.16Q49.45 57.67 48.81 56.96Q48.18 56.25 47.85 55.34Q47.53 54.42 47.53 53.30Q47.53 52.57 47.69 51.96Q47.85 51.35 48.15 50.82Q48.45 50.30 48.86 49.89Q49.28 49.47 49.78 49.13Q50.28 48.77 50.85 48.52L51.20 49.07Q50.70 49.47 50.35 49.96Q50 50.45 49.78 50.99Q49.55 51.52 49.45 52.11Q49.35 52.70 49.35 53.30Q49.35 54.42 49.74 55.36Q50.13 56.30 50.86 56.98Q51.60 57.65 52.69 58.02Q53.78 58.40 55.18 58.40Q56.45 58.40 57.44 57.89Q58.43 57.38 59.09 56.54Q59.75 55.70 60.08 54.67Q60.40 53.65 60.35 52.61Q60.30 51.57 59.85 50.67Q59.60 50.17 59.21 49.85Q58.83 49.52 58.23 49.52L57.85 49.52L57.85 49.27L62.83 49.27L62.83 49.52L62.45 49.52Q61.90 49.52 61.66 49.85Q61.43 50.17 61.53 50.67"/>
    <path d="M72.51 39.39L74.53 39.39L74.53 61L72.51 61L72.51 39.39M64.55 39.27L82.50 39.27L82.50 40.20L64.55 40.20L64.55 39.27M80.36 40.11L82.50 40.11L82.50 42.62L82.19 42.59L82.19 42.06Q82.19 41.28 81.64 40.76Q81.10 40.23 80.36 40.20L80.36 40.11M82.50 38.71L82.50 39.61L78.71 39.27Q79.40 39.27 80.16 39.18Q80.91 39.08 81.57 38.96Q82.22 38.84 82.50 38.71M72.51 58.74L72.61 58.74L72.61 61L70.13 61L70.13 60.69Q70.13 60.69 70.33 60.69Q70.53 60.69 70.53 60.69Q71.34 60.69 71.91 60.12Q72.48 59.54 72.51 58.74M74.44 61L74.44 58.74L74.53 58.74Q74.56 59.54 75.13 60.12Q75.71 60.69 76.51 60.69Q76.51 60.69 76.71 60.69Q76.92 60.69 76.92 60.69L76.92 61L74.44 61M64.55 40.11L66.69 40.11L66.69 40.20Q65.91 40.23 65.38 40.76Q64.86 41.28 64.86 42.06L64.86 42.59L64.55 42.62L64.55 40.11M64.55 39.61L64.55 38.71Q64.86 38.84 65.49 38.96Q66.13 39.08 66.90 39.18Q67.68 39.27 68.33 39.27"/>
  </g>
</svg>